#tb 0: 1/25
0,          0,          0,        1,   110592, 0xa6deed0a
0,          1,          1,        1,   110592, 0xe659ed0a
0,          2,          2,        1,   110592, 0x1ca5ed0a
0,          3,          3,        1,   110592, 0xc2e8ed0a
0,          4,          4,        1,   110592, 0x78d4ed0a
0,          5,          5,        1,   110592, 0xbe2eed0a
0,          6,          6,        1,   110592, 0x482ded0a
0,          7,          7,        1,   110592, 0x994eed0a
0,          8,          8,        1,   110592, 0x93aeed0a
0,          9,          9,        1,   110592, 0xbba8ed0a
0,         10,         10,        1,   110592, 0xeb2bed0a
0,         11,         11,        1,   110592, 0xe41ced0a
0,         12,         12,        1,   110592, 0xb404ed0a
0,         13,         13,        1,   110592, 0xbad1ed0a
0,         14,         14,        1,   110592, 0x952aed0a
0,         15,         15,        1,   110592, 0xbed4ed0a
0,         16,         16,        1,   110592, 0x5c7ded0a
0,         17,         17,        1,   110592, 0xbfe8ed0a
0,         18,         18,        1,   110592, 0xbb6bed0a
0,         19,         19,        1,   110592, 0x7473ed0a
0,         20,         20,        1,   110592, 0x7489ed0a
0,         21,         21,        1,   110592, 0x88a4ed0a
0,         22,         22,        1,   110592, 0xff0ced0a
0,         23,         23,        1,   110592, 0x04b8ed0a
0,         24,         24,        1,   110592, 0xeb8ded0a
0,         25,         25,        1,   110592, 0xc752ed0a
0,         26,         26,        1,   110592, 0x5b1bed0a
0,         27,         27,        1,   110592, 0x1c97ed0a
0,         28,         28,        1,   110592, 0x0a28ed0a
0,         29,         29,        1,   110592, 0x302ced0a
0,         30,         30,        1,   110592, 0x280bed0a
0,         31,         31,        1,   110592, 0xaa30ed0a
0,         32,         32,        1,   110592, 0xce59ed0a
0,         33,         33,        1,   110592, 0xe5f6ed0a
0,         34,         34,        1,   110592, 0x5b34ed0a
0,         35,         35,        1,   110592, 0x1b97ed0a
0,         36,         36,        1,   110592, 0x3283ed0a
0,         37,         37,        1,   110592, 0xe0d1ed0a
0,         38,         38,        1,   110592, 0x03f1ed0a
0,         39,         39,        1,   110592, 0x5744ed0a
0,         40,         40,        1,   110592, 0x8bbfed0a
0,         41,         41,        1,   110592, 0xde8fed0a
0,         42,         42,        1,   110592, 0x9975ed0a
0,         43,         43,        1,   110592, 0x72eded0a
0,         44,         44,        1,   110592, 0xe3efed0a
0,         45,         45,        1,   110592, 0xee7fed0a
0,         46,         46,        1,   110592, 0x44ffed0a
0,         47,         47,        1,   110592, 0x91e6ed0a
0,         48,         48,        1,   110592, 0x0a58ed0a
0,         49,         49,        1,   110592, 0x68d2ed0a
